<svg width="80" height="80" viewBox="0 0 80 80" fill="none" xmlns="http://www.w3.org/2000/svg">
<path d="M50.1562 46.25V42.3438C50.1562 36.7438 45.6 32.1875 40 32.1875C34.4 32.1875 29.8438 36.7438 29.8438 42.3438V46.25H34.5312V42.3438C34.5312 39.328 36.9843 36.875 40 36.875C43.0157 36.875 45.4688 39.328 45.4688 42.3438V46.25H50.1562Z" fill="#FFC107"/>
<path d="M72.9688 5.46875H7.03125C3.1543 5.46875 0 8.62305 0 12.5V17.9688H80V12.5C80 8.62305 76.8457 5.46875 72.9688 5.46875Z" fill="#FFC107"/>
<path d="M0 48.4375C0 52.3145 3.1543 55.4688 7.03125 55.4688H21.25V46.25H25.1562V42.3438C25.1562 34.1589 31.8152 27.5 40 27.5C48.1848 27.5 54.8438 34.1589 54.8438 42.3438V46.25H58.75V55.4688H72.9688C76.8457 55.4688 80 52.3145 80 48.4375V22.6562H0V48.4375Z" fill="#FFC107"/>
<path d="M25.9375 74.375H54.0625V50.9375H25.9375V74.375ZM40 57.9688C41.2946 57.9688 42.3438 59.0179 42.3438 60.3125C42.3438 61.6071 41.2946 62.6562 40 62.6562C38.7054 62.6562 37.6562 61.6071 37.6562 60.3125C37.6562 59.0179 38.7054 57.9688 40 57.9688Z" fill="#FFC107"/>
</svg>
