<svg width="24" height="24" viewBox="0 0 24 24" fill="none" xmlns="http://www.w3.org/2000/svg">
<path d="M3.9196 8.99373C4.1726 9.17226 4.93522 9.70249 6.20752 10.5841C7.47985 11.4658 8.45455 12.1447 9.13164 12.6207C9.20603 12.6729 9.36408 12.7864 9.60585 12.9612C9.84767 13.1362 10.0486 13.2776 10.2085 13.3854C10.3685 13.4933 10.5619 13.6142 10.7889 13.7481C11.0159 13.8819 11.2298 13.9825 11.4307 14.0491C11.6317 14.1162 11.8177 14.1495 11.9888 14.1495H12H12.0112C12.1823 14.1495 12.3684 14.1162 12.5693 14.0491C12.7702 13.9825 12.9843 13.8817 13.2111 13.7481C13.4379 13.614 13.6314 13.4932 13.7914 13.3854C13.9514 13.2776 14.1521 13.1362 14.394 12.9612C14.6358 12.7862 14.794 12.6729 14.8684 12.6207C15.5528 12.1447 17.294 10.9355 20.0915 8.99349C20.6347 8.61419 21.0884 8.15651 21.453 7.62077C21.8178 7.08527 22 6.52349 22 5.93576C22 5.44462 21.8232 5.02419 21.4697 4.67452C21.1163 4.32478 20.6977 4.15 20.2142 4.15H3.78564C3.21276 4.15 2.77189 4.34342 2.46311 4.73027C2.15437 5.11719 2 5.60082 2 6.18113C2 6.64987 2.20468 7.15782 2.61385 7.70466C3.02297 8.25155 3.45837 8.68127 3.9196 8.99373Z" fill="white"/>
<path d="M20.8838 10.1878C18.4435 11.8395 16.5906 13.123 15.3259 14.0383C14.9018 14.3507 14.5578 14.5945 14.2936 14.7693C14.0293 14.9441 13.678 15.1227 13.2389 15.3049C12.8 15.4874 12.3909 15.5784 12.0114 15.5784H12H11.9888C11.6093 15.5784 11.2001 15.4874 10.7611 15.3049C10.3222 15.1227 9.97061 14.9441 9.70647 14.7693C9.44241 14.5945 9.09826 14.3507 8.6742 14.0383C7.66968 13.3018 5.82075 12.0181 3.12734 10.1878C2.70313 9.90527 2.32739 9.5814 2 9.21688V18.0782C2 18.5696 2.17478 18.9898 2.52452 19.3395C2.87419 19.6893 3.29465 19.8642 3.78575 19.8642H20.2144C20.7053 19.8642 21.1258 19.6893 21.4755 19.3395C21.8253 18.9897 22 18.5696 22 18.0782V9.21688C21.68 9.57386 21.3081 9.89773 20.8838 10.1878Z" fill="white"/>
</svg>
