<svg width="50" height="50" viewBox="0 0 50 50" fill="none" xmlns="http://www.w3.org/2000/svg">
<path d="M1 25C1 11.7452 11.7452 1 25 1C38.2548 1 49 11.7452 49 25C49 38.2548 38.2548 49 25 49C11.7452 49 1 38.2548 1 25Z" stroke="white"/>
<path d="M25 18.6213C26.9529 18.6213 28.2702 19.4649 29.0214 20.1698L31.9565 17.304C30.1538 15.6284 27.808 14.6 25 14.6C20.9325 14.6 17.4196 16.9342 15.7094 20.3316L19.072 22.9431C19.9156 20.4356 22.2498 18.6213 25 18.6213Z" fill="white"/>
<path d="M34.984 25.2311C34.984 24.376 34.9147 23.752 34.7644 23.1049H25V26.9644H30.7316C30.616 27.9236 29.992 29.368 28.6053 30.3387L31.8871 32.8809C33.8516 31.0667 34.984 28.3973 34.984 25.2311Z" fill="white"/>
<path d="M19.0835 27.0569C18.864 26.4098 18.7369 25.7164 18.7369 25C18.7369 24.2836 18.864 23.5902 19.072 22.9431L15.7093 20.3316C15.0044 21.7413 14.6 23.3244 14.6 25C14.6 26.6756 15.0044 28.2587 15.7093 29.6684L19.0835 27.0569Z" fill="white"/>
<path d="M24.9999 35.4C27.8079 35.4 30.1653 34.4756 31.887 32.8809L28.6053 30.3387C27.727 30.9511 26.5484 31.3787 24.9999 31.3787C22.2497 31.3787 19.9155 29.5644 19.0835 27.0569L15.7208 29.6684C17.431 33.0658 20.9324 35.4 24.9999 35.4Z" fill="white"/>
</svg>
