<svg width="50" height="50" viewBox="0 0 50 50" fill="none" xmlns="http://www.w3.org/2000/svg">
<path d="M1 25C1 11.7452 11.7452 1 25 1C38.2548 1 49 11.7452 49 25C49 38.2548 38.2548 49 25 49C11.7452 49 1 38.2548 1 25Z" stroke="white"/>
<path fill-rule="evenodd" clip-rule="evenodd" d="M11 24.9603C11 17.2625 17.2802 11 24.9998 11C32.7194 11 38.9997 17.2625 38.9997 24.9603C38.9997 26.0508 38.9087 26.9336 38.7048 27.8197L38.7018 27.8344C38.7013 27.837 38.6001 28.2455 38.5442 28.4237C38.1982 29.5272 37.5718 30.4463 36.7325 31.0815C35.9186 31.6977 34.9094 32.0371 33.891 32.0371C33.7652 32.0371 33.6385 32.032 33.5144 32.0221C32.0682 31.9063 30.7966 31.1474 30.0168 29.9373C28.6757 31.282 26.8964 32.0218 24.9998 32.0218C21.0951 32.0218 17.9184 28.854 17.9184 24.9603C17.9184 21.0666 21.0951 17.8989 24.9998 17.8989C28.9045 17.8989 32.0812 21.0666 32.0812 24.9603V27.2366C32.087 28.5648 32.9808 29.1077 33.7444 29.1691C34.5041 29.2276 35.5152 28.7863 35.8674 27.3461C36.0411 26.5562 36.1294 25.7533 36.1294 24.9603C36.1294 18.8407 31.1367 13.8621 24.9998 13.8621C18.8629 13.8621 13.8703 18.8407 13.8703 24.9603C13.8703 31.0798 18.8629 36.0585 24.9998 36.0585C27.136 36.0585 29.2136 35.4501 31.0079 34.2991L31.0401 34.2784L32.9261 36.465L32.8856 36.4926C30.5549 38.0811 27.828 38.9207 24.9998 38.9207C17.2802 38.9207 11 32.6581 11 24.9603ZM24.9998 29.1596C27.3218 29.1596 29.2109 27.2758 29.2109 24.9603C29.2109 22.6448 27.3218 20.7612 24.9998 20.7612C22.6777 20.7612 20.7887 22.6448 20.7887 24.9603C20.7887 27.2758 22.6777 29.1596 24.9998 29.1596Z" fill="white"/>
</svg>
