<svg width="80" height="80" viewBox="0 0 80 80" fill="none" xmlns="http://www.w3.org/2000/svg">
<g clip-path="url(#clip0)">
<path d="M30.3632 56.6315C30.8282 55.1135 31.5381 53.7054 32.4615 52.4524L31.8842 51.1792H10.025V46.5009H29.7638L28.1378 42.9132H10.025V38.2349H26.0168L25.7001 37.5354C25.1227 36.2616 24.8175 34.9127 24.7833 33.5559H9.94202V9.77356H36.6516V23.1586C37.3352 23.2672 38.0084 23.443 38.6652 23.6902C41.2311 24.6552 43.2672 26.5625 44.3994 29.0601L45.0903 30.5841C45.3625 30.5627 45.636 30.5518 45.9113 30.5518C46.3745 30.5518 46.8353 30.5841 47.2919 30.6464V0H0.15625V61.2897H29.7589C29.6948 59.7333 29.8944 58.161 30.3632 56.6315Z" fill="#FFC107"/>
<path d="M30.8118 23.9478C31.1926 23.7756 31.5802 23.6298 31.9733 23.5052V14.4525H14.6204V28.8776H25.7867C26.8256 26.6919 28.5822 24.9585 30.8118 23.9478Z" fill="#FFC107"/>
<path d="M41.6791 77.5818C38.2898 76.5643 35.3571 74.2328 33.6072 71.156L31.2946 67.0782C31.1072 66.7139 30.9393 66.3428 30.7855 65.968H0.15625V79.8474H46.9061L46.6138 79.4843L41.6791 77.5818ZM23.1976 75.0891C21.886 75.0891 20.9149 74.0173 20.8582 72.7502C20.8014 71.4868 21.9739 70.4108 23.1976 70.4108C24.5087 70.4108 25.4797 71.4825 25.5365 72.7502C25.5933 74.0131 24.4208 75.0891 23.1976 75.0891Z" fill="#FFC107"/>
<path d="M79.978 80L74.1132 69.2017L74.3671 57.3645L66.319 39.0558L66.308 39.0314C65.0024 36.1517 61.5979 34.8706 58.7183 36.1761C58.3557 36.3397 58.0194 36.5375 57.71 36.7627C56.1542 34.5666 53.2062 33.7048 50.6653 34.856C50.033 35.1428 49.4769 35.531 49.0094 35.993C48.6737 35.7788 48.3142 35.5969 47.9334 35.4535C46.4996 34.9146 44.942 34.9658 43.5468 35.5981C43.2208 35.7458 42.9132 35.9222 42.6257 36.123L40.2722 30.9314C39.6399 29.5361 38.5022 28.4705 37.0685 27.9315C35.6354 27.392 34.0778 27.4432 32.6825 28.0756C31.2872 28.7079 30.2222 29.8456 29.6826 31.2793C29.1437 32.713 29.195 34.2706 29.8273 35.6653L37.843 53.3514C36.3574 54.5239 35.26 56.1163 34.6954 57.9596C33.974 60.3137 34.1968 62.8162 35.3235 65.0055L37.5458 68.916C38.7524 71.0382 40.7831 72.6245 43.1311 73.2855L49.3805 75.6946L52.8461 80H79.978Z" fill="#FFC107"/>
</g>
<defs>
<clipPath id="clip0">
<rect width="80" height="80" fill="white"/>
</clipPath>
</defs>
</svg>
