<svg width="40" height="24" viewBox="0 0 40 24" fill="none" xmlns="http://www.w3.org/2000/svg">
<path fill-rule="evenodd" clip-rule="evenodd" d="M0 0H14.5042V2.53999H0V0ZM0 21.3431H14.5042V23.8832H0V21.3431ZM0 16.0074H14.099V18.5474H0V16.0074ZM0 10.6716H14.099V13.2117H0V10.6716ZM0 5.3359H14.099V7.87589H0V5.3359ZM37.3147 11.9415C37.3147 11.7313 37.3087 11.5408 37.297 11.3698C37.0989 8.48267 35.3455 6.21744 32.5983 4.66164C29.6984 3.01906 25.7174 2.15432 21.2544 2.15432V2.15865C20.656 2.15865 20.0582 2.17341 19.4624 2.20302C18.1986 5.44651 17.5666 8.695 17.5666 11.9415C17.5666 15.1881 18.1986 18.4367 19.4624 21.6801C20.0582 21.7098 20.656 21.7245 21.2545 21.7245C25.7223 21.7245 29.7031 20.8611 32.5985 19.2215C35.3455 17.6657 37.0989 15.4005 37.297 12.5133C37.3087 12.3423 37.3147 12.152 37.3147 11.9415ZM39.4473 11.2264C39.4644 11.4781 39.4733 11.7171 39.4733 11.9415C39.4733 12.1661 39.4644 12.4051 39.4473 12.6568C39.1947 16.3374 37.0361 19.182 33.6609 21.0934C30.4341 22.9209 26.0811 23.8832 21.2545 23.8832C20.416 23.8832 19.5451 23.8525 18.6458 23.7909L17.9778 23.7453L17.7224 23.1288C16.1795 19.4078 15.4077 15.6753 15.4077 11.9415C15.4077 8.20761 16.1795 4.47534 17.7224 0.754393L17.9778 0.138165L18.6458 0.0922336C19.545 0.0306186 20.4161 0 21.2544 0V0.00418233C26.0857 0.00403296 30.4389 0.964743 33.6608 2.78974C37.0361 4.70115 39.1947 7.54575 39.4473 11.2264Z" fill="white"/>
</svg>
