<svg width="122" height="16" viewBox="0 0 122 16" fill="none" xmlns="http://www.w3.org/2000/svg">
<path fill-rule="evenodd" clip-rule="evenodd" d="M5.33156 9.38617H9.07084L7.69522 6.32827C7.61698 6.1345 7.53267 5.90944 7.44813 5.65611C7.36385 5.40296 7.27616 5.12148 7.19184 4.80877C7.11992 5.10284 7.04169 5.37484 6.95737 5.62799C6.876 5.88136 6.79168 6.11583 6.70717 6.32827L5.33156 9.38617ZM11.3594 14.6573L9.83991 11.2055H4.52493L2.96789 14.6573H0.679321L7.17321 0.719473L13.6606 14.6573H11.3594ZM14.9571 1.24462H17.1143V9.38908C17.1143 10.5961 17.3926 11.5059 17.9522 12.1124C18.5118 12.7219 19.3467 13.0252 20.4597 13.0252C21.5633 13.0252 22.3949 12.7219 22.9547 12.1124C23.5142 11.5059 23.7925 10.5961 23.7925 9.38908V1.24462H25.9685V9.58916C25.9685 11.4027 25.5121 12.7626 24.596 13.6632C23.6799 14.5635 22.298 15.0136 20.4534 15.0136C18.6089 15.0136 17.233 14.5635 16.3232 13.6661C15.4134 12.7689 14.9571 11.4088 14.9571 9.58916V1.24462ZM33.7274 3.10177V14.6573H31.5512V3.10177H27.9871V1.24462H37.2727V3.10177H33.7274ZM50.1716 7.97907C50.1716 7.3006 50.0466 6.65673 49.7996 6.04704C49.5527 5.43735 49.1962 4.89331 48.7335 4.41805C48.2803 3.94597 47.758 3.58648 47.1641 3.33311C46.5668 3.08 45.9384 2.95184 45.282 2.95184C44.6222 2.95184 43.9938 3.07683 43.3967 3.32683C42.8026 3.57703 42.2711 3.93966 41.8084 4.41805C41.3458 4.887 40.9892 5.42791 40.7453 6.0376C40.5016 6.64729 40.3795 7.29451 40.3795 7.97907C40.3795 8.65755 40.5016 9.29848 40.7453 9.90186C40.9892 10.5052 41.3458 11.0461 41.8084 11.5214C42.2711 11.9998 42.7994 12.3624 43.3936 12.6126C43.9844 12.8626 44.6159 12.9878 45.282 12.9878C45.9353 12.9878 46.5544 12.8626 47.1452 12.6126C47.7331 12.3624 48.2646 11.9998 48.7335 11.5214C49.1962 11.0461 49.5527 10.5052 49.7996 9.89873C50.0466 9.28904 50.1716 8.65123 50.1716 7.97907ZM52.4415 7.97907C52.4415 8.93272 52.2633 9.83308 51.9069 10.6804C51.5474 11.5309 51.0284 12.2873 50.3436 12.9535C49.6559 13.6193 48.8774 14.129 48.0083 14.4821C47.1421 14.8356 46.2323 15.0136 45.282 15.0136C44.3157 15.0136 43.3967 14.8355 42.5182 14.479C41.6427 14.1195 40.8705 13.613 40.1983 12.9535C39.5135 12.2873 38.9945 11.534 38.6413 10.6898C38.2879 9.8488 38.1098 8.94531 38.1098 7.97907C38.1098 7.01933 38.2879 6.11583 38.6413 5.26853C38.9945 4.41806 39.5135 3.65844 40.1983 2.98624C40.8829 2.32012 41.6583 1.81361 42.5245 1.46673C43.3904 1.11963 44.3097 0.944498 45.282 0.944498C46.2449 0.944498 47.1578 1.11963 48.0238 1.46673C48.8868 1.81361 49.6622 2.32012 50.3436 2.98624C51.0284 3.66449 51.5474 4.43064 51.9069 5.28089C52.2633 6.1345 52.4415 7.03169 52.4415 7.97907ZM59.0251 3.10177V14.6573H56.8489V3.10177H53.2848V1.24462H62.5704V3.10177H59.0251ZM64.658 14.6573V1.24462H72.1428V3.10177H66.8341V6.45957H72.1428V8.37314H66.8341V12.7064H72.1428V14.6573H64.658ZM74.2929 11.9717L76.0314 11.1682C76.197 11.7653 76.5003 12.2217 76.9412 12.5344C77.3789 12.8503 77.9416 13.0065 78.6261 13.0065C79.2765 13.0065 79.7893 12.8251 80.174 12.4656C80.5552 12.1061 80.7461 11.6246 80.7461 11.0212C80.7461 10.2332 80.0926 9.52978 78.7826 8.91404C78.598 8.82323 78.4575 8.75444 78.3604 8.71374C76.8816 7.99165 75.8969 7.34126 75.4059 6.75677C74.9152 6.17203 74.6681 5.45916 74.6681 4.61814C74.6681 3.524 75.0402 2.63914 75.7812 1.96066C76.5221 1.28219 77.4976 0.944498 78.7012 0.944498C79.6893 0.944498 80.5177 1.13535 81.1838 1.51666C81.8497 1.89815 82.3092 2.44533 82.5657 3.15801L80.8648 4.0397C80.5959 3.61773 80.3021 3.30816 79.9799 3.11439C79.658 2.91745 79.2891 2.82032 78.8732 2.82032C78.2887 2.82032 77.8195 2.97365 77.4758 3.28008C77.1286 3.58334 76.9567 3.99295 76.9567 4.50551C76.9567 5.31214 77.7165 6.06568 79.2327 6.75969C79.3484 6.81611 79.439 6.85995 79.5079 6.88807C80.8335 7.50067 81.7434 8.09796 82.2372 8.67934C82.7314 9.26409 82.9782 9.99268 82.9782 10.865C82.9782 12.1342 82.5781 13.1441 81.7778 13.8913C80.9774 14.6386 79.8957 15.0136 78.5324 15.0136C77.3913 15.0136 76.4565 14.751 75.725 14.2259C74.9963 13.7005 74.5179 12.9503 74.2929 11.9717ZM96.7151 8.03549C96.6899 7.93231 96.6495 7.64456 96.5962 7.17557C96.5462 6.78486 96.5024 6.45956 96.468 6.20328C96.4118 6.50968 96.3336 6.81611 96.2335 7.11937C96.1335 7.4258 96.0054 7.73537 95.852 8.05416L92.3441 15.2013L88.8364 7.90711C88.6894 7.60699 88.5612 7.31945 88.4548 7.038C88.3485 6.75677 88.2548 6.47846 88.1765 6.20328C88.1702 6.48473 88.1484 6.77858 88.1077 7.08815C88.0671 7.39769 88.0077 7.71961 87.9295 8.05416L86.4914 14.6573H84.4843L87.6545 0.681946L91.6126 9.14538C91.6719 9.27668 91.7659 9.50171 91.8909 9.81127C92.0159 10.124 92.166 10.5084 92.3441 10.965C92.4724 10.5803 92.6757 10.0927 92.9506 9.5017C93.0226 9.34232 93.079 9.22025 93.1134 9.13594L96.9808 0.681946L100.223 14.6573H98.197L96.7151 8.03549ZM102.385 14.6573V1.24462H109.87V3.10177H104.561V6.45957H109.87V8.37314H104.561V12.7064H109.87V14.6573H102.385ZM114.965 6.96608H115.362C116.516 6.96608 117.282 6.83161 117.66 6.56274C118.039 6.29388 118.229 5.81862 118.229 5.1341C118.229 4.39625 118.026 3.87715 117.62 3.57389C117.213 3.27064 116.46 3.12067 115.362 3.12067H114.965V6.96608ZM114.834 8.65441V14.6573H112.789V1.24462H115.828C116.719 1.24462 117.41 1.304 117.904 1.41976C118.395 1.53552 118.814 1.72619 119.161 1.99506C119.577 2.32012 119.896 2.73918 120.124 3.25196C120.349 3.76452 120.462 4.32433 120.462 4.93715C120.462 6.00948 120.202 6.8505 119.683 7.46019C119.164 8.06675 118.398 8.43252 117.385 8.55436L122 14.6573H119.543L115.078 8.65441H114.834Z" fill="white"/>
</svg>
