<svg width="80" height="80" viewBox="0 0 80 80" fill="none" xmlns="http://www.w3.org/2000/svg">
<path d="M32.9688 44.6875C32.9688 48.5645 36.123 51.7188 40 51.7188C43.877 51.7188 47.0312 48.5645 47.0312 44.6875C47.0312 40.8105 43.877 37.6562 40 37.6562C36.123 37.6562 32.9688 40.8105 32.9688 44.6875Z" fill="#FFC107"/>
<path d="M40 56.4062C32.2455 56.4062 25.9375 62.7142 25.9375 70.4688V80H54.0625V70.4688C54.0625 62.7142 47.7545 56.4062 40 56.4062Z" fill="#FFC107"/>
<path d="M21.25 49.375C21.25 45.498 18.0957 42.3438 14.2188 42.3438C10.3418 42.3438 7.1875 45.498 7.1875 49.375C7.1875 53.252 10.3418 56.4062 14.2188 56.4062C18.0957 56.4062 21.25 53.252 21.25 49.375Z" fill="#FFC107"/>
<path d="M72.8125 49.375C72.8125 45.498 69.6582 42.3438 65.7812 42.3438C61.9043 42.3438 58.75 45.498 58.75 49.375C58.75 53.252 61.9043 56.4062 65.7812 56.4062C69.6582 56.4062 72.8125 53.252 72.8125 49.375Z" fill="#FFC107"/>
<path d="M11.875 0L8.30933 8.40637L0 9.57825L5.99304 15.271L4.61487 23.5938L11.875 19.7992L19.1351 23.5938L17.757 15.271L23.5938 9.57825L15.528 8.40637L11.875 0Z" fill="#FFC107"/>
<path d="M43.653 8.40637L40 0L36.4343 8.40637L28.2812 9.57825L34.118 15.271L32.7399 23.5938L40 19.7992L47.2601 23.5938L45.882 15.271L51.7188 9.57825L43.653 8.40637Z" fill="#FFC107"/>
<path d="M68.125 0L64.5593 8.40637L56.4062 9.57825L62.243 15.271L60.8649 23.5938L68.125 19.7992L75.3851 23.5938L74.007 15.271L80 9.57825L71.778 8.40637L68.125 0Z" fill="#FFC107"/>
<path d="M65.7812 61.0938C62.666 61.0938 59.8151 62.1393 57.4847 63.8531C58.269 65.918 58.75 68.1323 58.75 70.4688V80H80V75.1562C80 67.3895 73.548 61.0938 65.7812 61.0938Z" fill="#FFC107"/>
<path d="M0 75.1562V80H21.25V70.4688C21.25 68.1323 21.731 65.918 22.5153 63.8531C20.1849 62.1393 17.334 61.0938 14.2188 61.0938C6.45203 61.0938 0 67.3895 0 75.1562Z" fill="#FFC107"/>
</svg>
