<svg width="80" height="80" viewBox="0 0 80 80" fill="none" xmlns="http://www.w3.org/2000/svg">
<g clip-path="url(#clip0)">
<path d="M39.9991 20.0004C45.5218 20.0004 49.9989 15.5233 49.9989 10.0006C49.9989 4.47781 45.5218 0.000732422 39.9991 0.000732422C34.4763 0.000732422 29.9993 4.47781 29.9993 10.0006C29.9993 15.5233 34.4763 20.0004 39.9991 20.0004Z" fill="#FFC107"/>
<path d="M54.9789 47.18L52.7089 29.5003C52.4539 26.9353 50.314 25.0004 47.739 25.0004H44.9991C44.3341 25.0004 43.6991 25.2654 43.2291 25.7304L39.9991 28.9603L36.7692 25.7304C36.2992 25.2654 35.6642 25.0004 34.9992 25.0004H32.2643C29.6843 25.0004 27.5444 26.9353 27.2944 29.4353L25.0194 47.185C24.9294 47.895 25.1494 48.615 25.6244 49.1499C26.0994 49.6899 26.7794 49.9999 27.4994 49.9999H30.1993L32.2893 75.4995C32.5393 78.0594 34.6842 79.9994 37.2642 79.9994H42.7391C45.319 79.9994 47.459 78.0594 47.719 75.4545L49.804 49.9999H52.4989C53.2189 49.9999 53.8989 49.6899 54.3739 49.1499C54.8539 48.615 55.0739 47.895 54.9789 47.18Z" fill="#FFC107"/>
<path d="M64.9987 20.0004C70.5214 20.0004 74.9985 15.5233 74.9985 10.0006C74.9985 4.47781 70.5214 0.000732422 64.9987 0.000732422C59.4759 0.000732422 54.9988 4.47781 54.9988 10.0006C54.9988 15.5233 59.4759 20.0004 64.9987 20.0004Z" fill="#FFC107"/>
<path d="M14.9996 0.000732422C9.48468 0.000732422 4.99976 4.48565 4.99976 10.0006C4.99976 15.5155 9.48468 20.0004 14.9996 20.0004C20.5095 20.0004 24.9994 15.5155 24.9994 10.0006C24.9994 4.48565 20.5095 0.000732422 14.9996 0.000732422Z" fill="#FFC107"/>
<path d="M79.9784 47.18L77.7084 29.5053C77.4535 26.9353 75.3185 25.0004 72.7385 25.0004H69.9986C69.3336 25.0004 68.6986 25.2654 68.2286 25.7304L64.9987 28.9603L61.7687 25.7304C61.2987 25.2654 60.6638 25.0004 60.0038 25.0004H57.2638C56.9538 25.0004 56.6738 25.1104 56.3788 25.1654C57.0238 26.3053 57.5288 27.5403 57.6788 28.9253L59.9438 46.545C60.2238 48.69 59.5538 50.8499 58.1138 52.4749C57.4338 53.2549 56.5638 53.8049 55.6339 54.2349L57.2938 70.4996C57.5488 73.0645 59.6888 74.9995 62.2687 74.9995H67.7436C70.3236 74.9995 72.4635 73.0595 72.7235 70.4546L74.8035 49.9999H77.4985C78.2184 49.9999 78.8984 49.6899 79.3734 49.1499C79.8534 48.615 80.0734 47.895 79.9784 47.18Z" fill="#FFC107"/>
<path d="M21.8694 52.4499C20.4494 50.8449 19.7895 48.6899 20.0595 46.555L22.3344 28.8003C22.4644 27.4703 22.9544 26.2703 23.5794 25.1604C23.2994 25.1104 23.0344 25.0004 22.7394 25.0004H19.9995C19.3345 25.0004 18.6995 25.2654 18.2295 25.7304L14.9995 28.9603L11.7696 25.7304C11.2996 25.2654 10.6646 25.0004 10.0046 25.0004H7.26452C4.68456 25.0004 2.5446 26.9353 2.29461 29.4353L0.0196459 47.185C-0.0703525 47.895 0.149644 48.615 0.624635 49.1499C1.09963 49.6899 1.78462 49.9999 2.4996 49.9999H5.19956L7.28952 70.4996C7.53951 73.0595 9.68448 74.9995 12.2644 74.9995H17.7393C20.3193 74.9995 22.4593 73.0595 22.7192 70.4546L24.3792 54.2299C23.4444 53.7949 22.5694 53.2399 21.8694 52.4499Z" fill="#FFC107"/>
</g>
<defs>
<clipPath id="clip0">
<rect width="80" height="80" fill="white"/>
</clipPath>
</defs>
</svg>
