<svg width="50" height="50" viewBox="0 0 50 50" fill="none" xmlns="http://www.w3.org/2000/svg">
<rect x="1" y="1" width="48" height="48" rx="24" stroke="white"/>
<path fill-rule="evenodd" clip-rule="evenodd" d="M40.2658 17.5346C40.4884 16.7929 40.2658 16.2478 39.2071 16.2478H35.7062C34.816 16.2478 34.4059 16.7187 34.1834 17.238C34.1834 17.238 32.403 21.5773 29.8809 24.396C29.0649 25.2119 28.6941 25.4712 28.249 25.4712C28.0264 25.4712 27.7044 25.2119 27.7044 24.4702V17.5346C27.7044 16.6444 27.4461 16.2478 26.7041 16.2478H21.2028C20.6467 16.2478 20.3121 16.6609 20.3121 17.0525C20.3121 17.8964 21.5729 18.091 21.703 20.4645V25.62C21.703 26.7503 21.4989 26.9553 21.0538 26.9553C19.867 26.9553 16.9804 22.5963 15.268 17.6089C14.9324 16.6394 14.5958 16.2478 13.7011 16.2478H10.2003C9.20005 16.2478 9 16.7187 9 17.238C9 18.1653 10.187 22.7643 14.5263 28.8467C17.4195 33.0002 21.4949 35.2522 25.2038 35.2522C27.4293 35.2522 27.7044 34.7521 27.7044 33.8907V30.7512C27.7044 29.751 27.9152 29.5514 28.6196 29.5514C29.1392 29.5514 30.0292 29.811 32.1064 31.8137C34.4799 34.187 34.871 35.2522 36.2064 35.2522H39.7072C40.7074 35.2522 41.2075 34.7521 40.919 33.7651C40.6034 32.7814 39.4701 31.3546 37.9663 29.6627C37.1503 28.6982 35.9263 27.6597 35.5557 27.1406C35.0363 26.4729 35.1846 26.1764 35.5557 25.5832C35.5557 25.5832 39.8207 19.5748 40.2658 17.5349V17.5346Z" fill="white"/>
</svg>
